<svg width="184" height="53" viewBox="0 0 184 53" fill="none" xmlns="http://www.w3.org/2000/svg">
<path opacity="0.3" d="M163.75 43.04C163.75 44.2032 163.059 45.3491 161.721 46.4264C160.386 47.5018 158.439 48.4814 156.011 49.3087C151.157 50.9626 144.436 51.99 137 51.99C129.564 51.99 122.843 50.9626 117.989 49.3087C115.561 48.4814 113.614 47.5018 112.279 46.4264C110.941 45.3491 110.25 44.2032 110.25 43.04C110.25 41.8768 110.941 40.7309 112.279 39.6536C113.614 38.5782 115.561 37.5986 117.989 36.7713C122.843 35.1174 129.564 34.09 137 34.09C144.436 34.09 151.157 35.1174 156.011 36.7713C158.439 37.5986 160.386 38.5782 161.721 39.6536C163.059 40.7309 163.75 41.8768 163.75 43.04Z" stroke="#3AC4E5" stroke-width="0.5"/>
<path opacity="0.3" d="M157.75 40.74C157.75 41.8552 157.182 42.9434 156.1 43.9598C155.017 44.9766 153.437 45.9038 151.464 46.6878C147.519 48.2551 142.052 49.23 136 49.23C129.948 49.23 124.481 48.2551 120.536 46.6878C118.563 45.9038 116.983 44.9766 115.9 43.9598C114.818 42.9434 114.25 41.8552 114.25 40.74C114.25 39.6248 114.818 38.5366 115.9 37.5202C116.983 36.5034 118.563 35.5762 120.536 34.7922C124.481 33.2249 129.948 32.25 136 32.25C142.052 32.25 147.519 33.2249 151.464 34.7922C153.437 35.5762 155.017 36.5034 156.1 37.5202C157.182 38.5366 157.75 39.6248 157.75 40.74Z" stroke="#3AC4E5" stroke-width="0.5"/>
<path d="M3.88438 8.8H8.76438V9.104H7.88438V19.696H8.76438V20H3.88438V19.696H4.76438V9.104H3.88438V8.8ZM9.36388 12.384H13.2199V13.856C13.3905 13.3653 13.6519 12.9707 14.0039 12.672C14.3559 12.3733 14.8892 12.224 15.6039 12.224C17.2572 12.224 18.0839 13.1147 18.0839 14.896V19.712H18.9799V20H14.4519V19.712H15.1079V14.512C15.1079 13.872 15.0652 13.4613 14.9799 13.28C14.8945 13.088 14.7399 12.992 14.5159 12.992C14.1745 12.992 13.8705 13.216 13.6039 13.664C13.3479 14.112 13.2199 14.656 13.2199 15.296V19.712H13.9079V20H9.36388V19.712H10.2439V12.672H9.36388V12.384ZM21.5433 11.28C20.9779 11.28 20.5726 11.136 20.3273 10.848C20.0926 10.56 19.9753 10.2027 19.9753 9.776C19.9753 9.34933 20.1033 8.99733 20.3593 8.72C20.6259 8.44267 21.0259 8.304 21.5593 8.304C22.0926 8.304 22.4979 8.432 22.7753 8.688C23.0526 8.93333 23.1913 9.29067 23.1913 9.76C23.1913 10.2187 23.0579 10.5867 22.7913 10.864C22.5246 11.1413 22.1086 11.28 21.5433 11.28ZM19.1273 12.384H23.0473V19.712H23.9433V20H19.1913V19.712H20.0713V12.672H19.1273V12.384ZM28.7494 12.512C28.28 12.512 27.944 12.768 27.7414 13.28C27.5387 13.792 27.4374 14.64 27.4374 15.824V16.656C27.4374 17.712 27.5547 18.4693 27.7894 18.928C28.024 19.3867 28.456 19.616 29.0854 19.616C29.7147 19.616 30.216 19.4027 30.5894 18.976C30.9627 18.5493 31.2027 18.064 31.3094 17.52L31.5974 17.552C31.3947 18.4693 31.0214 19.1307 30.4774 19.536C29.9227 19.952 29.16 20.16 28.1894 20.16C26.952 20.16 26.0027 19.8293 25.3414 19.168C24.68 18.496 24.3494 17.52 24.3494 16.24C24.3494 14.9493 24.7227 13.9573 25.4694 13.264C26.2267 12.5707 27.2774 12.224 28.6214 12.224C29.5707 12.224 30.296 12.4107 30.7974 12.784C31.2987 13.1467 31.5494 13.6053 31.5494 14.16C31.5494 14.7147 31.4267 15.12 31.1814 15.376C30.9467 15.632 30.616 15.76 30.1894 15.76C29.7734 15.76 29.4374 15.648 29.1814 15.424C28.9254 15.2 28.7974 14.8693 28.7974 14.432C28.7974 14.24 28.824 14.048 28.8774 13.856H29.4054C29.48 13.6427 29.5174 13.4507 29.5174 13.28C29.5174 12.768 29.2614 12.512 28.7494 12.512ZM34.3558 11.28C33.7904 11.28 33.3851 11.136 33.1398 10.848C32.9051 10.56 32.7878 10.2027 32.7878 9.776C32.7878 9.34933 32.9158 8.99733 33.1718 8.72C33.4384 8.44267 33.8384 8.304 34.3718 8.304C34.9051 8.304 35.3104 8.432 35.5878 8.688C35.8651 8.93333 36.0038 9.29067 36.0038 9.76C36.0038 10.2187 35.8704 10.5867 35.6038 10.864C35.3371 11.1413 34.9211 11.28 34.3558 11.28ZM31.9398 12.384H35.8598V19.712H36.7558V20H32.0038V19.712H32.8838V12.672H31.9398V12.384ZM40.9219 16.24H41.3859V15.008C41.3859 13.9947 41.3272 13.3173 41.2099 12.976C41.1032 12.624 40.8899 12.448 40.5699 12.448C40.3779 12.448 40.2019 12.5013 40.0419 12.608C39.8925 12.704 39.8179 12.8427 39.8179 13.024C39.8179 13.1947 39.8499 13.3707 39.9139 13.552H40.3139C40.3992 13.776 40.4419 14.048 40.4419 14.368C40.4419 14.6773 40.3085 14.9493 40.0419 15.184C39.7752 15.408 39.4392 15.52 39.0339 15.52C38.1165 15.52 37.6579 15.0773 37.6579 14.192C37.6579 12.88 38.7725 12.224 41.0019 12.224C42.2712 12.224 43.1459 12.4427 43.6259 12.88C44.1165 13.3067 44.3619 14.096 44.3619 15.248V18.496C44.3619 19.0507 44.5165 19.328 44.8259 19.328C45.1885 19.328 45.4019 18.7787 45.4659 17.68L45.7059 17.696C45.6632 18.6347 45.4872 19.28 45.1779 19.632C44.8685 19.984 44.3619 20.16 43.6579 20.16C42.3779 20.16 41.6419 19.7653 41.4499 18.976C41.3112 19.3813 41.1032 19.68 40.8259 19.872C40.5485 20.064 40.1432 20.16 39.6099 20.16C38.0312 20.16 37.2419 19.5147 37.2419 18.224C37.2419 17.4667 37.5405 16.9493 38.1379 16.672C38.7459 16.384 39.6739 16.24 40.9219 16.24ZM40.2819 18.208C40.2819 18.7627 40.3085 19.12 40.3619 19.28C40.4259 19.44 40.5379 19.52 40.6979 19.52C40.8685 19.52 41.0232 19.3867 41.1619 19.12C41.3112 18.8427 41.3859 18.464 41.3859 17.984V16.496H41.2739C40.6125 16.496 40.2819 16.9813 40.2819 17.952V18.208ZM96.637 11.28C96.0717 11.28 95.6663 11.136 95.421 10.848C95.1863 10.56 95.069 10.2027 95.069 9.776C95.069 9.34933 95.197 8.99733 95.453 8.72C95.7197 8.44267 96.1197 8.304 96.653 8.304C97.1863 8.304 97.5917 8.432 97.869 8.688C98.1463 8.93333 98.285 9.29067 98.285 9.76C98.285 10.2187 98.1517 10.5867 97.885 10.864C97.6183 11.1413 97.2023 11.28 96.637 11.28ZM94.221 12.384H98.141V19.712H99.037V20H94.285V19.712H95.165V12.672H94.221V12.384ZM27.1788 44.712V39.672H26.2988V39.384H27.1788V37.32L30.1548 36.584V39.384H32.2348V39.672H30.1548V45.064C30.1548 45.5653 30.2028 45.9333 30.2988 46.168C30.4054 46.4027 30.6188 46.52 30.9388 46.52C31.2588 46.52 31.5361 46.36 31.7708 46.04C32.0161 45.72 32.1761 45.2827 32.2508 44.728L32.5228 44.76C32.4374 45.496 32.2028 46.0827 31.8188 46.52C31.4348 46.9467 30.8001 47.16 29.9148 47.16C29.0294 47.16 28.3521 46.984 27.8828 46.632C27.4134 46.28 27.1788 45.64 27.1788 44.712ZM37.8436 43.848V42.488C37.8436 41.4533 37.785 40.7013 37.6676 40.232C37.561 39.752 37.305 39.512 36.8996 39.512C36.665 39.512 36.473 39.5813 36.3236 39.72C36.185 39.848 36.0836 40.0667 36.0196 40.376C35.9236 40.856 35.8756 41.5867 35.8756 42.568V43.816C35.8756 44.9787 35.9076 45.6773 35.9716 45.912C36.0463 46.1467 36.121 46.3387 36.1956 46.488C36.313 46.744 36.5423 46.872 36.8836 46.872C37.2996 46.872 37.5716 46.632 37.6996 46.152C37.7956 45.8107 37.8436 45.0427 37.8436 43.848ZM36.8516 47.16C35.5183 47.16 34.5103 46.8187 33.8276 46.136C33.145 45.4533 32.8036 44.4773 32.8036 43.208C32.8036 41.928 33.1663 40.9467 33.8916 40.264C34.6276 39.5707 35.657 39.224 36.9796 39.224C38.3023 39.224 39.289 39.544 39.9396 40.184C40.5903 40.8133 40.9156 41.7787 40.9156 43.08C40.9156 45.8 39.561 47.16 36.8516 47.16ZM42.1631 44.712V39.672H41.2831V39.384H42.1631V37.32L45.1391 36.584V39.384H47.2191V39.672H45.1391V45.064C45.1391 45.5653 45.1871 45.9333 45.2831 46.168C45.3898 46.4027 45.6031 46.52 45.9231 46.52C46.2431 46.52 46.5205 46.36 46.7551 46.04C47.0005 45.72 47.1605 45.2827 47.2351 44.728L47.5071 44.76C47.4218 45.496 47.1871 46.0827 46.8031 46.52C46.4191 46.9467 45.7845 47.16 44.8991 47.16C44.0138 47.16 43.3365 46.984 42.8671 46.632C42.3978 46.28 42.1631 45.64 42.1631 44.712ZM51.335 44.712V39.672H50.455V39.384H51.335V37.32L54.311 36.584V39.384H56.391V39.672H54.311V45.064C54.311 45.5653 54.359 45.9333 54.455 46.168C54.5617 46.4027 54.775 46.52 55.095 46.52C55.415 46.52 55.6923 46.36 55.927 46.04C56.1723 45.72 56.3323 45.2827 56.407 44.728L56.679 44.76C56.5937 45.496 56.359 46.0827 55.975 46.52C55.591 46.9467 54.9563 47.16 54.071 47.16C53.1857 47.16 52.5083 46.984 52.039 46.632C51.5697 46.28 51.335 45.64 51.335 44.712ZM59.1839 38.28C58.6185 38.28 58.2132 38.136 57.9679 37.848C57.7332 37.56 57.6159 37.2027 57.6159 36.776C57.6159 36.3493 57.7439 35.9973 57.9999 35.72C58.2665 35.4427 58.6665 35.304 59.1999 35.304C59.7332 35.304 60.1385 35.432 60.4159 35.688C60.6932 35.9333 60.8319 36.2907 60.8319 36.76C60.8319 37.2187 60.6985 37.5867 60.4319 37.864C60.1652 38.1413 59.7492 38.28 59.1839 38.28ZM56.7679 39.384H60.6879V46.712H61.5839V47H56.8319V46.712H57.7119V39.672H56.7679V39.384ZM67.75 42.696C67.75 41.5973 67.6967 40.8613 67.59 40.488C67.4833 40.104 67.2753 39.912 66.966 39.912C66.6567 39.912 66.3793 40.1147 66.134 40.52C65.8887 40.9147 65.766 41.448 65.766 42.12V45.048C65.766 45.5067 65.8567 45.896 66.038 46.216C66.2193 46.536 66.486 46.696 66.838 46.696C67.19 46.696 67.43 46.4613 67.558 45.992C67.686 45.5227 67.75 44.7013 67.75 43.528V42.696ZM65.734 39.384V40.648C66.15 39.6987 66.886 39.224 67.942 39.224C68.8593 39.224 69.5687 39.5547 70.07 40.216C70.582 40.8773 70.838 41.88 70.838 43.224C70.838 44.568 70.5607 45.56 70.006 46.2C69.462 46.84 68.6407 47.16 67.542 47.16C67.03 47.16 66.646 47.096 66.39 46.968C66.134 46.84 65.926 46.6427 65.766 46.376V50.52H67.83V50.808H61.91V50.52H62.79V39.672H61.942V39.384H65.734ZM80.6763 47H77.0283L76.8523 45.832C76.6816 46.2587 76.4256 46.5893 76.0843 46.824C75.7536 47.048 75.2576 47.16 74.5963 47.16C72.9429 47.16 72.1163 46.2693 72.1163 44.488V39.672H71.2203V39.384H75.0923V44.872C75.0923 45.512 75.1349 45.9333 75.2203 46.136C75.3163 46.3387 75.4976 46.44 75.7643 46.44C76.0416 46.44 76.2869 46.2747 76.5003 45.944C76.7136 45.6133 76.8203 45.1547 76.8203 44.568V39.672H76.0843V39.384H79.7963V46.712H80.6763V47ZM81.3717 47.16V44.296H81.5638C81.8411 45.224 82.2144 45.8747 82.6838 46.248C83.1531 46.6213 83.7398 46.808 84.4438 46.808C85.5318 46.808 86.0758 46.4613 86.0758 45.768C86.0758 45.4693 85.9424 45.2453 85.6758 45.096C85.2598 44.8613 84.7264 44.68 84.0758 44.552C83.3504 44.36 82.7424 44.104 82.2518 43.784C81.6651 43.4 81.3717 42.792 81.3717 41.96C81.3717 41.128 81.6277 40.4667 82.1398 39.976C82.6518 39.4747 83.3344 39.224 84.1878 39.224C84.7104 39.224 85.2491 39.3467 85.8038 39.592C86.0064 39.6773 86.1611 39.72 86.2678 39.72C86.3744 39.72 86.4651 39.6827 86.5398 39.608C86.6144 39.5333 86.7051 39.3947 86.8118 39.192H86.9878V41.64H86.7958C86.2518 40.2533 85.4091 39.56 84.2678 39.56C83.7664 39.56 83.3931 39.6507 83.1478 39.832C82.9024 40.0027 82.7798 40.2213 82.7798 40.488C82.7798 40.648 82.8171 40.776 82.8918 40.872C82.9664 40.9573 83.0251 41.0213 83.0678 41.064C83.1104 41.1067 83.1798 41.1547 83.2758 41.208C83.3718 41.2507 83.4518 41.288 83.5158 41.32C83.5798 41.3413 83.6758 41.3733 83.8038 41.416C83.9424 41.4587 84.0438 41.4853 84.1078 41.496C84.8331 41.6773 85.3558 41.8373 85.6758 41.976C85.9958 42.104 86.2998 42.264 86.5878 42.456C87.1744 42.8613 87.4678 43.5173 87.4678 44.424C87.4678 45.32 87.2011 46.0027 86.6678 46.472C86.1344 46.9307 85.4038 47.16 84.4758 47.16C83.8144 47.16 83.1744 47.0053 82.5558 46.696C82.4278 46.6107 82.3264 46.568 82.2518 46.568C82.0171 46.568 81.7878 46.7653 81.5638 47.16H81.3717ZM94.0643 43.688C94.0643 44.808 94.1229 45.5547 94.2403 45.928C94.3576 46.2907 94.5709 46.472 94.8802 46.472C95.2002 46.472 95.4723 46.3333 95.6963 46.056C95.9309 45.7787 96.0483 45.368 96.0483 44.824V41.336C96.0483 40.8773 95.9576 40.488 95.7763 40.168C95.5949 39.848 95.3283 39.688 94.9763 39.688C94.6243 39.688 94.3843 39.9227 94.2563 40.392C94.1283 40.8613 94.0643 41.6827 94.0643 42.856V43.688ZM96.2563 47L96.0803 45.88C95.7176 46.7333 94.9816 47.16 93.8723 47.16C92.9549 47.16 92.2403 46.8293 91.7283 46.168C91.2269 45.5067 90.9763 44.52 90.9763 43.208C90.9763 40.552 92.0323 39.224 94.1443 39.224C95.0829 39.224 95.7016 39.4853 96.0003 40.008V35.288H95.0243V35H99.0243V46.712H99.8083V47H96.2563ZM104.431 47.16C103.055 47.16 102.02 46.808 101.327 46.104C100.644 45.3893 100.303 44.4027 100.303 43.144C100.303 41.8747 100.687 40.904 101.455 40.232C102.233 39.56 103.22 39.224 104.415 39.224C106.836 39.224 107.999 40.44 107.903 42.872H103.391V43.496C103.391 44.5413 103.524 45.3307 103.791 45.864C104.057 46.3973 104.521 46.664 105.183 46.664C106.42 46.664 107.231 46.0027 107.615 44.68L107.903 44.728C107.7 45.496 107.332 46.0933 106.799 46.52C106.276 46.9467 105.487 47.16 104.431 47.16ZM103.407 42.552H105.055V41.768C105.055 40.904 105.001 40.3173 104.895 40.008C104.799 39.688 104.596 39.528 104.286 39.528C103.988 39.528 103.764 39.6987 103.615 40.04C103.476 40.3707 103.407 40.9467 103.407 41.768V42.552Z" fill="black"/>
<path d="M49.1061 20.16V17.296H49.2981C49.5755 18.224 49.9488 18.8747 50.4181 19.248C50.8875 19.6213 51.4741 19.808 52.1781 19.808C53.2661 19.808 53.8101 19.4613 53.8101 18.768C53.8101 18.4693 53.6768 18.2453 53.4101 18.096C52.9941 17.8613 52.4608 17.68 51.8101 17.552C51.0848 17.36 50.4768 17.104 49.9861 16.784C49.3995 16.4 49.1061 15.792 49.1061 14.96C49.1061 14.128 49.3621 13.4667 49.8741 12.976C50.3861 12.4747 51.0688 12.224 51.9221 12.224C52.4448 12.224 52.9835 12.3467 53.5381 12.592C53.7408 12.6773 53.8955 12.72 54.0021 12.72C54.1088 12.72 54.1995 12.6827 54.2741 12.608C54.3488 12.5333 54.4395 12.3947 54.5461 12.192H54.7221V14.64H54.5301C53.9861 13.2533 53.1435 12.56 52.0021 12.56C51.5008 12.56 51.1275 12.6507 50.8821 12.832C50.6368 13.0027 50.5141 13.2213 50.5141 13.488C50.5141 13.648 50.5515 13.776 50.6261 13.872C50.7008 13.9573 50.7595 14.0213 50.8021 14.064C50.8448 14.1067 50.9141 14.1547 51.0101 14.208C51.1061 14.2507 51.1861 14.288 51.2501 14.32C51.3141 14.3413 51.4101 14.3733 51.5381 14.416C51.6768 14.4587 51.7781 14.4853 51.8421 14.496C52.5675 14.6773 53.0901 14.8373 53.4101 14.976C53.7301 15.104 54.0341 15.264 54.3221 15.456C54.9088 15.8613 55.2021 16.5173 55.2021 17.424C55.2021 18.32 54.9355 19.0027 54.4021 19.472C53.8688 19.9307 53.1381 20.16 52.2101 20.16C51.5488 20.16 50.9088 20.0053 50.2901 19.696C50.1621 19.6107 50.0608 19.568 49.9861 19.568C49.7515 19.568 49.5221 19.7653 49.2981 20.16H49.1061ZM59.8836 20.16C58.5076 20.16 57.473 19.808 56.7796 19.104C56.097 18.3893 55.7556 17.4027 55.7556 16.144C55.7556 14.8747 56.1396 13.904 56.9076 13.232C57.6863 12.56 58.673 12.224 59.8676 12.224C62.289 12.224 63.4516 13.44 63.3556 15.872H58.8436V16.496C58.8436 17.5413 58.977 18.3307 59.2436 18.864C59.5103 19.3973 59.9743 19.664 60.6356 19.664C61.873 19.664 62.6836 19.0027 63.0676 17.68L63.3556 17.728C63.153 18.496 62.785 19.0933 62.2516 19.52C61.729 19.9467 60.9396 20.16 59.8836 20.16ZM58.8596 15.552H60.5076V14.768C60.5076 13.904 60.4543 13.3173 60.3476 13.008C60.2516 12.688 60.049 12.528 59.7396 12.528C59.441 12.528 59.217 12.6987 59.0676 13.04C58.929 13.3707 58.8596 13.9467 58.8596 14.768V15.552ZM64.1374 20.16V17.296H64.3294C64.6067 18.224 64.98 18.8747 65.4494 19.248C65.9187 19.6213 66.5054 19.808 67.2094 19.808C68.2974 19.808 68.8414 19.4613 68.8414 18.768C68.8414 18.4693 68.708 18.2453 68.4414 18.096C68.0254 17.8613 67.492 17.68 66.8414 17.552C66.116 17.36 65.508 17.104 65.0174 16.784C64.4307 16.4 64.1374 15.792 64.1374 14.96C64.1374 14.128 64.3934 13.4667 64.9054 12.976C65.4174 12.4747 66.1 12.224 66.9534 12.224C67.476 12.224 68.0147 12.3467 68.5694 12.592C68.772 12.6773 68.9267 12.72 69.0334 12.72C69.14 12.72 69.2307 12.6827 69.3054 12.608C69.38 12.5333 69.4707 12.3947 69.5774 12.192H69.7534V14.64H69.5614C69.0174 13.2533 68.1747 12.56 67.0334 12.56C66.532 12.56 66.1587 12.6507 65.9134 12.832C65.668 13.0027 65.5454 13.2213 65.5454 13.488C65.5454 13.648 65.5827 13.776 65.6574 13.872C65.732 13.9573 65.7907 14.0213 65.8334 14.064C65.876 14.1067 65.9454 14.1547 66.0414 14.208C66.1374 14.2507 66.2174 14.288 66.2814 14.32C66.3454 14.3413 66.4414 14.3733 66.5694 14.416C66.708 14.4587 66.8094 14.4853 66.8734 14.496C67.5987 14.6773 68.1214 14.8373 68.4414 14.976C68.7614 15.104 69.0654 15.264 69.3534 15.456C69.94 15.8613 70.2334 16.5173 70.2334 17.424C70.2334 18.32 69.9667 19.0027 69.4334 19.472C68.9 19.9307 68.1694 20.16 67.2414 20.16C66.58 20.16 65.94 20.0053 65.3214 19.696C65.1934 19.6107 65.092 19.568 65.0174 19.568C64.7827 19.568 64.5534 19.7653 64.3294 20.16H64.1374ZM71.0749 20.16V17.296H71.2669C71.5442 18.224 71.9175 18.8747 72.3869 19.248C72.8562 19.6213 73.4429 19.808 74.1469 19.808C75.2349 19.808 75.7789 19.4613 75.7789 18.768C75.7789 18.4693 75.6455 18.2453 75.3789 18.096C74.9629 17.8613 74.4295 17.68 73.7789 17.552C73.0535 17.36 72.4455 17.104 71.9549 16.784C71.3682 16.4 71.0749 15.792 71.0749 14.96C71.0749 14.128 71.3309 13.4667 71.8429 12.976C72.3549 12.4747 73.0375 12.224 73.8909 12.224C74.4135 12.224 74.9522 12.3467 75.5069 12.592C75.7095 12.6773 75.8642 12.72 75.9709 12.72C76.0775 12.72 76.1682 12.6827 76.2429 12.608C76.3175 12.5333 76.4082 12.3947 76.5149 12.192H76.6909V14.64H76.4989C75.9549 13.2533 75.1122 12.56 73.9709 12.56C73.4695 12.56 73.0962 12.6507 72.8509 12.832C72.6055 13.0027 72.4829 13.2213 72.4829 13.488C72.4829 13.648 72.5202 13.776 72.5949 13.872C72.6695 13.9573 72.7282 14.0213 72.7709 14.064C72.8135 14.1067 72.8829 14.1547 72.9789 14.208C73.0749 14.2507 73.1549 14.288 73.2189 14.32C73.2829 14.3413 73.3789 14.3733 73.5069 14.416C73.6455 14.4587 73.7469 14.4853 73.8109 14.496C74.5362 14.6773 75.0589 14.8373 75.3789 14.976C75.6989 15.104 76.0029 15.264 76.2909 15.456C76.8775 15.8613 77.1709 16.5173 77.1709 17.424C77.1709 18.32 76.9042 19.0027 76.3709 19.472C75.8375 19.9307 75.1069 20.16 74.1789 20.16C73.5175 20.16 72.8775 20.0053 72.2589 19.696C72.1309 19.6107 72.0295 19.568 71.9549 19.568C71.7202 19.568 71.4909 19.7653 71.2669 20.16H71.0749ZM79.9964 11.28C79.431 11.28 79.0257 11.136 78.7804 10.848C78.5457 10.56 78.4284 10.2027 78.4284 9.776C78.4284 9.34933 78.5564 8.99733 78.8124 8.72C79.079 8.44267 79.479 8.304 80.0124 8.304C80.5457 8.304 80.951 8.432 81.2284 8.688C81.5057 8.93333 81.6444 9.29067 81.6444 9.76C81.6444 10.2187 81.511 10.5867 81.2444 10.864C80.9777 11.1413 80.5617 11.28 79.9964 11.28ZM77.5804 12.384H81.5004V19.712H82.3964V20H77.6444V19.712H78.5244V12.672H77.5804V12.384ZM87.8905 16.848V15.488C87.8905 14.4533 87.8318 13.7013 87.7145 13.232C87.6078 12.752 87.3518 12.512 86.9465 12.512C86.7118 12.512 86.5198 12.5813 86.3705 12.72C86.2318 12.848 86.1305 13.0667 86.0665 13.376C85.9705 13.856 85.9225 14.5867 85.9225 15.568V16.816C85.9225 17.9787 85.9545 18.6773 86.0185 18.912C86.0932 19.1467 86.1678 19.3387 86.2425 19.488C86.3598 19.744 86.5892 19.872 86.9305 19.872C87.3465 19.872 87.6185 19.632 87.7465 19.152C87.8425 18.8107 87.8905 18.0427 87.8905 16.848ZM86.8985 20.16C85.5652 20.16 84.5572 19.8187 83.8745 19.136C83.1918 18.4533 82.8505 17.4773 82.8505 16.208C82.8505 14.928 83.2132 13.9467 83.9385 13.264C84.6745 12.5707 85.7038 12.224 87.0265 12.224C88.3492 12.224 89.3358 12.544 89.9865 13.184C90.6372 13.8133 90.9625 14.7787 90.9625 16.08C90.9625 18.8 89.6078 20.16 86.8985 20.16ZM85.8425 11.248L86.8505 8.192L87.6025 8.032C87.9332 7.95733 88.1838 8 88.3545 8.16C88.5358 8.30933 88.6265 8.51733 88.6265 8.784C88.6265 9.04 88.4718 9.30667 88.1625 9.584L86.0185 11.36L85.8425 11.248Z" fill="#261815"/>
<path d="M105.934 20.112C105.315 20.112 104.777 19.936 104.318 19.584C103.859 19.2213 103.502 18.72 103.246 18.08C102.99 17.4293 102.862 16.6773 102.862 15.824C102.862 14.448 103.161 13.3867 103.758 12.64C104.366 11.8933 105.161 11.52 106.142 11.52C106.611 11.52 107.011 11.5893 107.342 11.728C107.673 11.8667 107.977 12.0427 108.254 12.256V8.352C108.254 8.08533 108.494 7.952 108.974 7.952H109.15C109.641 7.952 109.886 8.08533 109.886 8.352V17.504C109.886 17.9733 109.902 18.352 109.934 18.64C109.966 18.928 109.998 19.1467 110.03 19.296C110.062 19.4453 110.078 19.5467 110.078 19.6C110.078 19.6853 110.03 19.7547 109.934 19.808C109.849 19.8613 109.742 19.904 109.614 19.936C109.486 19.968 109.358 19.9893 109.23 20C109.102 20.0107 109.006 20.016 108.942 20.016C108.803 20.016 108.697 19.9573 108.622 19.84C108.558 19.712 108.505 19.5627 108.462 19.392C108.43 19.2107 108.398 19.0507 108.366 18.912C108.035 19.296 107.662 19.5947 107.246 19.808C106.841 20.0107 106.403 20.112 105.934 20.112ZM106.334 18.72C106.675 18.72 107.011 18.624 107.342 18.432C107.673 18.24 107.977 17.984 108.254 17.664V13.504C108.009 13.312 107.742 13.168 107.454 13.072C107.166 12.9653 106.857 12.912 106.526 12.912C105.875 12.912 105.385 13.1573 105.054 13.648C104.723 14.128 104.558 14.8213 104.558 15.728C104.558 16.688 104.707 17.4293 105.006 17.952C105.315 18.464 105.758 18.72 106.334 18.72ZM115.941 20.112C114.576 20.112 113.568 19.7547 112.917 19.04C112.266 18.3147 111.941 17.2587 111.941 15.872C111.941 14.8907 112.09 14.08 112.389 13.44C112.688 12.8 113.12 12.32 113.685 12C114.25 11.68 114.928 11.52 115.717 11.52C116.485 11.52 117.114 11.6907 117.605 12.032C118.096 12.3733 118.458 12.8533 118.693 13.472C118.938 14.0907 119.061 14.832 119.061 15.696C119.061 15.76 119.024 15.8507 118.949 15.968C118.874 16.0853 118.789 16.192 118.693 16.288C118.597 16.384 118.517 16.432 118.453 16.432H113.669C113.733 17.2427 113.952 17.8347 114.325 18.208C114.698 18.5707 115.242 18.752 115.957 18.752C116.394 18.752 116.762 18.6987 117.061 18.592C117.37 18.4853 117.616 18.384 117.797 18.288C117.989 18.1813 118.117 18.128 118.181 18.128C118.266 18.128 118.357 18.192 118.453 18.32C118.549 18.4373 118.634 18.5707 118.709 18.72C118.784 18.8587 118.821 18.9653 118.821 19.04C118.821 19.168 118.736 19.296 118.565 19.424C118.405 19.552 118.186 19.6693 117.909 19.776C117.632 19.872 117.322 19.952 116.981 20.016C116.64 20.08 116.293 20.112 115.941 20.112ZM113.669 15.152H117.381C117.381 14.416 117.242 13.856 116.965 13.472C116.688 13.0773 116.261 12.88 115.685 12.88C115.098 12.88 114.634 13.0667 114.293 13.44C113.952 13.8027 113.744 14.3733 113.669 15.152ZM122.902 20.144C122.443 20.144 122.017 20.0907 121.622 19.984C121.238 19.8667 120.923 19.728 120.678 19.568C120.443 19.408 120.326 19.2533 120.326 19.104C120.326 19.0187 120.363 18.9067 120.438 18.768C120.513 18.6187 120.598 18.4853 120.694 18.368C120.79 18.24 120.881 18.176 120.966 18.176C121.019 18.176 121.121 18.2293 121.27 18.336C121.419 18.432 121.622 18.528 121.878 18.624C122.134 18.72 122.433 18.768 122.774 18.768C123.702 18.768 124.166 18.4213 124.166 17.728C124.166 17.3547 124.022 17.0827 123.734 16.912C123.457 16.7307 123.099 16.5653 122.662 16.416C122.321 16.288 121.985 16.1387 121.654 15.968C121.323 15.7867 121.051 15.536 120.838 15.216C120.625 14.896 120.518 14.464 120.518 13.92C120.518 13.44 120.63 13.0187 120.854 12.656C121.089 12.2933 121.409 12.016 121.814 11.824C122.23 11.6213 122.705 11.52 123.238 11.52C123.59 11.52 123.931 11.552 124.262 11.616C124.603 11.6693 124.886 11.7547 125.11 11.872C125.334 11.9893 125.446 12.1227 125.446 12.272C125.446 12.368 125.414 12.496 125.35 12.656C125.286 12.8053 125.211 12.944 125.126 13.072C125.041 13.1893 124.955 13.248 124.87 13.248C124.817 13.248 124.667 13.184 124.422 13.056C124.187 12.928 123.857 12.864 123.43 12.864C123.078 12.864 122.779 12.944 122.534 13.104C122.289 13.264 122.166 13.4933 122.166 13.792C122.166 14.08 122.262 14.304 122.454 14.464C122.646 14.624 122.977 14.784 123.446 14.944C123.873 15.0827 124.262 15.2587 124.614 15.472C124.977 15.6747 125.265 15.9413 125.478 16.272C125.702 16.6027 125.814 17.0347 125.814 17.568C125.814 18.0693 125.691 18.512 125.446 18.896C125.201 19.28 124.859 19.584 124.422 19.808C123.985 20.032 123.478 20.144 122.902 20.144ZM131.111 20.112C129.799 20.112 128.807 19.776 128.135 19.104C127.474 18.4213 127.143 17.3227 127.143 15.808C127.143 15.008 127.245 14.336 127.447 13.792C127.65 13.2373 127.927 12.7947 128.279 12.464C128.642 12.1333 129.058 11.8933 129.527 11.744C129.997 11.5947 130.498 11.52 131.031 11.52C131.437 11.52 131.826 11.5573 132.199 11.632C132.583 11.7067 132.898 11.808 133.143 11.936C133.389 12.064 133.511 12.208 133.511 12.368C133.511 12.4533 133.474 12.576 133.399 12.736C133.325 12.896 133.239 13.04 133.143 13.168C133.058 13.2853 132.973 13.344 132.887 13.344C132.877 13.344 132.855 13.3387 132.823 13.328C132.791 13.3067 132.743 13.2853 132.679 13.264C132.541 13.2 132.333 13.12 132.055 13.024C131.789 12.928 131.453 12.88 131.047 12.88C130.365 12.88 129.831 13.104 129.447 13.552C129.063 14 128.871 14.736 128.871 15.76C128.871 16.7947 129.042 17.552 129.383 18.032C129.725 18.512 130.306 18.752 131.127 18.752C131.554 18.752 131.911 18.704 132.199 18.608C132.498 18.5013 132.722 18.4107 132.871 18.336C132.925 18.3147 132.967 18.2987 132.999 18.288C133.031 18.2773 133.058 18.272 133.079 18.272C133.165 18.272 133.255 18.336 133.351 18.464C133.447 18.5813 133.527 18.7147 133.591 18.864C133.666 19.0027 133.703 19.1147 133.703 19.2C133.703 19.3387 133.623 19.4613 133.463 19.568C133.303 19.6747 133.095 19.7707 132.839 19.856C132.583 19.9307 132.301 19.9893 131.991 20.032C131.693 20.0853 131.399 20.112 131.111 20.112ZM138.701 20.112C137.485 20.112 136.552 19.744 135.901 19.008C135.261 18.272 134.941 17.216 134.941 15.84C134.941 14.4533 135.261 13.3867 135.901 12.64C136.552 11.8933 137.485 11.52 138.701 11.52C139.906 11.52 140.824 11.8933 141.453 12.64C142.093 13.376 142.413 14.4427 142.413 15.84C142.413 17.2267 142.098 18.288 141.469 19.024C140.85 19.7493 139.928 20.112 138.701 20.112ZM138.669 18.752C139.384 18.752 139.906 18.512 140.237 18.032C140.568 17.5413 140.733 16.8053 140.733 15.824C140.733 14.832 140.568 14.096 140.237 13.616C139.906 13.1253 139.384 12.88 138.669 12.88C137.965 12.88 137.448 13.12 137.117 13.6C136.797 14.08 136.637 14.8213 136.637 15.824C136.637 16.8053 136.797 17.5413 137.117 18.032C137.448 18.512 137.965 18.752 138.669 18.752ZM148.45 20.112C147.992 20.112 147.554 20.0107 147.138 19.808C146.733 19.5947 146.365 19.296 146.034 18.912C145.97 19.264 145.885 19.552 145.778 19.776C145.736 19.8827 145.672 19.952 145.586 19.984C145.501 20.016 145.378 20.032 145.218 20.032H145.122C144.717 20.032 144.514 19.8987 144.514 19.632V8.352C144.514 8.08533 144.754 7.952 145.234 7.952H145.41C145.901 7.952 146.146 8.08533 146.146 8.352V12.256C146.413 12.0427 146.712 11.8667 147.042 11.728C147.384 11.5893 147.784 11.52 148.242 11.52C149.234 11.52 150.029 11.8933 150.626 12.64C151.224 13.3867 151.522 14.4427 151.522 15.808C151.522 16.672 151.394 17.4293 151.138 18.08C150.893 18.72 150.541 19.2213 150.082 19.584C149.624 19.936 149.08 20.112 148.45 20.112ZM148.066 18.72C148.632 18.72 149.069 18.464 149.378 17.952C149.688 17.4293 149.842 16.688 149.842 15.728C149.842 14.8213 149.677 14.128 149.346 13.648C149.026 13.1573 148.536 12.912 147.874 12.912C147.565 12.912 147.261 12.9653 146.962 13.072C146.664 13.168 146.392 13.312 146.146 13.504V17.664C146.424 17.984 146.728 18.24 147.058 18.432C147.389 18.624 147.725 18.72 148.066 18.72ZM154.392 20.032C153.901 20.032 153.656 19.8987 153.656 19.632V14.176C153.656 13.7067 153.64 13.328 153.608 13.04C153.576 12.752 153.544 12.5333 153.512 12.384C153.48 12.2347 153.464 12.1387 153.464 12.096C153.464 12.0107 153.506 11.9413 153.592 11.888C153.688 11.8347 153.8 11.792 153.928 11.76C154.056 11.728 154.184 11.7067 154.312 11.696C154.44 11.6853 154.536 11.68 154.6 11.68C154.738 11.68 154.84 11.7387 154.904 11.856C154.978 11.9733 155.032 12.1173 155.064 12.288C155.106 12.448 155.144 12.5973 155.176 12.736C155.421 12.3733 155.693 12.08 155.992 11.856C156.301 11.632 156.637 11.52 157 11.52C157.33 11.52 157.565 11.584 157.704 11.712C157.853 11.8293 157.928 12 157.928 12.224C157.928 12.32 157.912 12.448 157.88 12.608C157.848 12.768 157.805 12.912 157.752 13.04C157.698 13.1573 157.634 13.216 157.56 13.216C157.453 13.216 157.346 13.1893 157.24 13.136C157.133 13.0827 156.957 13.056 156.712 13.056C156.456 13.056 156.221 13.1307 156.008 13.28C155.805 13.4187 155.64 13.5627 155.512 13.712C155.384 13.8613 155.309 13.952 155.288 13.984V19.632C155.288 19.8987 155.048 20.032 154.568 20.032H154.392ZM162.707 20.112C161.341 20.112 160.333 19.7547 159.683 19.04C159.032 18.3147 158.707 17.2587 158.707 15.872C158.707 14.8907 158.856 14.08 159.155 13.44C159.453 12.8 159.885 12.32 160.451 12C161.016 11.68 161.693 11.52 162.483 11.52C163.251 11.52 163.88 11.6907 164.371 12.032C164.861 12.3733 165.224 12.8533 165.459 13.472C165.704 14.0907 165.827 14.832 165.827 15.696C165.827 15.76 165.789 15.8507 165.715 15.968C165.64 16.0853 165.555 16.192 165.459 16.288C165.363 16.384 165.283 16.432 165.219 16.432H160.435C160.499 17.2427 160.717 17.8347 161.091 18.208C161.464 18.5707 162.008 18.752 162.723 18.752C163.16 18.752 163.528 18.6987 163.827 18.592C164.136 18.4853 164.381 18.384 164.563 18.288C164.755 18.1813 164.883 18.128 164.947 18.128C165.032 18.128 165.123 18.192 165.219 18.32C165.315 18.4373 165.4 18.5707 165.475 18.72C165.549 18.8587 165.587 18.9653 165.587 19.04C165.587 19.168 165.501 19.296 165.331 19.424C165.171 19.552 164.952 19.6693 164.675 19.776C164.397 19.872 164.088 19.952 163.747 20.016C163.405 20.08 163.059 20.112 162.707 20.112ZM160.435 15.152H164.147C164.147 14.416 164.008 13.856 163.731 13.472C163.453 13.0773 163.027 12.88 162.451 12.88C161.864 12.88 161.4 13.0667 161.059 13.44C160.717 13.8027 160.509 14.3733 160.435 15.152ZM168.564 20.032C168.073 20.032 167.828 19.8987 167.828 19.632V12C167.828 11.7333 168.073 11.6 168.564 11.6H168.724C169.214 11.6 169.46 11.7333 169.46 12V19.632C169.46 19.8987 169.214 20.032 168.724 20.032H168.564ZM168.644 10.576C168.345 10.576 168.126 10.544 167.988 10.48C167.86 10.4053 167.796 10.304 167.796 10.176V9.136C167.796 9.008 167.86 8.912 167.988 8.848C168.126 8.77333 168.345 8.736 168.644 8.736C168.942 8.736 169.156 8.77333 169.284 8.848C169.422 8.912 169.492 9.008 169.492 9.136V10.176C169.492 10.304 169.422 10.4053 169.284 10.48C169.156 10.544 168.942 10.576 168.644 10.576ZM171.774 20.032C171.507 20.032 171.31 20.0107 171.182 19.968C171.065 19.9147 171.006 19.8453 171.006 19.76C171.006 19.6747 171.054 19.568 171.15 19.44L173.678 15.728L171.326 12.208C171.23 12.0693 171.182 11.9573 171.182 11.872C171.182 11.7867 171.246 11.7227 171.374 11.68C171.502 11.6267 171.71 11.6 171.998 11.6H172.238C172.43 11.6 172.59 11.616 172.718 11.648C172.846 11.68 172.947 11.7493 173.022 11.856L174.382 13.936C174.457 14.0533 174.515 14.1547 174.558 14.24C174.611 14.3253 174.654 14.3947 174.686 14.448C174.729 14.3947 174.771 14.3253 174.814 14.24C174.857 14.1547 174.921 14.0533 175.006 13.936L176.382 11.84C176.446 11.744 176.547 11.68 176.686 11.648C176.835 11.616 177.001 11.6 177.182 11.6H177.358C177.87 11.6 178.126 11.6907 178.126 11.872C178.126 11.9573 178.078 12.064 177.982 12.192L175.598 15.696L178.11 19.424C178.206 19.5627 178.254 19.6747 178.254 19.76C178.254 19.8453 178.19 19.9147 178.062 19.968C177.945 20.0107 177.737 20.032 177.438 20.032H177.198C177.006 20.032 176.846 20.016 176.718 19.984C176.59 19.952 176.494 19.8827 176.43 19.776L174.894 17.456C174.819 17.3387 174.761 17.2427 174.718 17.168C174.675 17.0827 174.638 17.0133 174.606 16.96C174.574 17.0133 174.531 17.0827 174.478 17.168C174.435 17.2427 174.377 17.3387 174.302 17.456L172.75 19.792C172.675 19.888 172.569 19.952 172.43 19.984C172.291 20.016 172.131 20.032 171.95 20.032H171.774ZM115.516 47.112C115.271 47.112 115.02 47.0747 114.764 47C114.519 46.9253 114.29 46.8027 114.076 46.632C113.863 46.4613 113.692 46.2267 113.564 45.928C113.447 45.6187 113.388 45.24 113.388 44.792V35.352C113.388 35.0853 113.628 34.952 114.108 34.952H114.284C114.775 34.952 115.02 35.0853 115.02 35.352V44.712C115.02 45.1173 115.095 45.3947 115.244 45.544C115.394 45.6827 115.58 45.752 115.804 45.752C115.986 45.752 116.114 45.7413 116.188 45.72C116.274 45.688 116.348 45.672 116.412 45.672C116.498 45.672 116.567 45.736 116.62 45.864C116.674 45.992 116.716 46.1253 116.748 46.264C116.78 46.4027 116.796 46.4933 116.796 46.536C116.796 46.7067 116.722 46.8347 116.572 46.92C116.423 46.9947 116.247 47.0427 116.044 47.064C115.852 47.096 115.676 47.112 115.516 47.112ZM120.266 47.112C120.021 47.112 119.77 47.0747 119.514 47C119.269 46.9253 119.04 46.8027 118.826 46.632C118.613 46.4613 118.442 46.2267 118.314 45.928C118.197 45.6187 118.138 45.24 118.138 44.792V35.352C118.138 35.0853 118.378 34.952 118.858 34.952H119.034C119.525 34.952 119.77 35.0853 119.77 35.352V44.712C119.77 45.1173 119.845 45.3947 119.994 45.544C120.144 45.6827 120.33 45.752 120.554 45.752C120.736 45.752 120.864 45.7413 120.938 45.72C121.024 45.688 121.098 45.672 121.162 45.672C121.248 45.672 121.317 45.736 121.37 45.864C121.424 45.992 121.466 46.1253 121.498 46.264C121.53 46.4027 121.546 46.4933 121.546 46.536C121.546 46.7067 121.472 46.8347 121.322 46.92C121.173 46.9947 120.997 47.0427 120.794 47.064C120.602 47.096 120.426 47.112 120.266 47.112ZM123.704 47.032C123.214 47.032 122.968 46.8987 122.968 46.632V39C122.968 38.7333 123.214 38.6 123.704 38.6H123.864C124.355 38.6 124.6 38.7333 124.6 39V46.632C124.6 46.8987 124.355 47.032 123.864 47.032H123.704ZM123.784 37.576C123.486 37.576 123.267 37.544 123.128 37.48C123 37.4053 122.936 37.304 122.936 37.176V36.136C122.936 36.008 123 35.912 123.128 35.848C123.267 35.7733 123.486 35.736 123.784 35.736C124.083 35.736 124.296 35.7733 124.424 35.848C124.563 35.912 124.632 36.008 124.632 36.136V37.176C124.632 37.304 124.563 37.4053 124.424 37.48C124.296 37.544 124.083 37.576 123.784 37.576ZM131.107 47.112C130.648 47.112 130.211 47.0107 129.795 46.808C129.389 46.5947 129.021 46.296 128.691 45.912C128.627 46.264 128.541 46.552 128.435 46.776C128.392 46.8827 128.328 46.952 128.243 46.984C128.157 47.016 128.035 47.032 127.875 47.032H127.779C127.373 47.032 127.171 46.8987 127.171 46.632V35.352C127.171 35.0853 127.411 34.952 127.891 34.952H128.067C128.557 34.952 128.803 35.0853 128.803 35.352V39.256C129.069 39.0427 129.368 38.8667 129.699 38.728C130.04 38.5893 130.44 38.52 130.899 38.52C131.891 38.52 132.685 38.8933 133.283 39.64C133.88 40.3867 134.179 41.4427 134.179 42.808C134.179 43.672 134.051 44.4293 133.795 45.08C133.549 45.72 133.197 46.2213 132.739 46.584C132.28 46.936 131.736 47.112 131.107 47.112ZM130.723 45.72C131.288 45.72 131.725 45.464 132.035 44.952C132.344 44.4293 132.499 43.688 132.499 42.728C132.499 41.8213 132.333 41.128 132.003 40.648C131.683 40.1573 131.192 39.912 130.531 39.912C130.221 39.912 129.917 39.9653 129.619 40.072C129.32 40.168 129.048 40.312 128.803 40.504V44.664C129.08 44.984 129.384 45.24 129.715 45.432C130.045 45.624 130.381 45.72 130.723 45.72ZM137.048 47.032C136.557 47.032 136.312 46.8987 136.312 46.632V41.176C136.312 40.7067 136.296 40.328 136.264 40.04C136.232 39.752 136.2 39.5333 136.168 39.384C136.136 39.2347 136.12 39.1387 136.12 39.096C136.12 39.0107 136.163 38.9413 136.248 38.888C136.344 38.8347 136.456 38.792 136.584 38.76C136.712 38.728 136.84 38.7067 136.968 38.696C137.096 38.6853 137.192 38.68 137.256 38.68C137.395 38.68 137.496 38.7387 137.56 38.856C137.635 38.9733 137.688 39.1173 137.72 39.288C137.763 39.448 137.8 39.5973 137.832 39.736C138.077 39.3733 138.349 39.08 138.648 38.856C138.957 38.632 139.293 38.52 139.656 38.52C139.987 38.52 140.221 38.584 140.36 38.712C140.509 38.8293 140.584 39 140.584 39.224C140.584 39.32 140.568 39.448 140.536 39.608C140.504 39.768 140.461 39.912 140.408 40.04C140.355 40.1573 140.291 40.216 140.216 40.216C140.109 40.216 140.003 40.1893 139.896 40.136C139.789 40.0827 139.613 40.056 139.368 40.056C139.112 40.056 138.877 40.1307 138.664 40.28C138.461 40.4187 138.296 40.5627 138.168 40.712C138.04 40.8613 137.965 40.952 137.944 40.984V46.632C137.944 46.8987 137.704 47.032 137.224 47.032H137.048ZM145.363 47.112C143.998 47.112 142.99 46.7547 142.339 46.04C141.688 45.3147 141.363 44.2587 141.363 42.872C141.363 41.8907 141.512 41.08 141.811 40.44C142.11 39.8 142.542 39.32 143.107 39C143.672 38.68 144.35 38.52 145.139 38.52C145.907 38.52 146.536 38.6907 147.027 39.032C147.518 39.3733 147.88 39.8533 148.115 40.472C148.36 41.0907 148.483 41.832 148.483 42.696C148.483 42.76 148.446 42.8507 148.371 42.968C148.296 43.0853 148.211 43.192 148.115 43.288C148.019 43.384 147.939 43.432 147.875 43.432H143.091C143.155 44.2427 143.374 44.8347 143.747 45.208C144.12 45.5707 144.664 45.752 145.379 45.752C145.816 45.752 146.184 45.6987 146.483 45.592C146.792 45.4853 147.038 45.384 147.219 45.288C147.411 45.1813 147.539 45.128 147.603 45.128C147.688 45.128 147.779 45.192 147.875 45.32C147.971 45.4373 148.056 45.5707 148.131 45.72C148.206 45.8587 148.243 45.9653 148.243 46.04C148.243 46.168 148.158 46.296 147.987 46.424C147.827 46.552 147.608 46.6693 147.331 46.776C147.054 46.872 146.744 46.952 146.403 47.016C146.062 47.08 145.715 47.112 145.363 47.112ZM143.091 42.152H146.803C146.803 41.416 146.664 40.856 146.387 40.472C146.11 40.0773 145.683 39.88 145.107 39.88C144.52 39.88 144.056 40.0667 143.715 40.44C143.374 40.8027 143.166 41.3733 143.091 42.152ZM152.324 47.144C151.865 47.144 151.439 47.0907 151.044 46.984C150.66 46.8667 150.345 46.728 150.1 46.568C149.865 46.408 149.748 46.2533 149.748 46.104C149.748 46.0187 149.785 45.9067 149.86 45.768C149.935 45.6187 150.02 45.4853 150.116 45.368C150.212 45.24 150.303 45.176 150.388 45.176C150.441 45.176 150.543 45.2293 150.692 45.336C150.841 45.432 151.044 45.528 151.3 45.624C151.556 45.72 151.855 45.768 152.196 45.768C153.124 45.768 153.588 45.4213 153.588 44.728C153.588 44.3547 153.444 44.0827 153.156 43.912C152.879 43.7307 152.521 43.5653 152.084 43.416C151.743 43.288 151.407 43.1387 151.076 42.968C150.745 42.7867 150.473 42.536 150.26 42.216C150.047 41.896 149.94 41.464 149.94 40.92C149.94 40.44 150.052 40.0187 150.276 39.656C150.511 39.2933 150.831 39.016 151.236 38.824C151.652 38.6213 152.127 38.52 152.66 38.52C153.012 38.52 153.353 38.552 153.684 38.616C154.025 38.6693 154.308 38.7547 154.532 38.872C154.756 38.9893 154.868 39.1227 154.868 39.272C154.868 39.368 154.836 39.496 154.772 39.656C154.708 39.8053 154.633 39.944 154.548 40.072C154.463 40.1893 154.377 40.248 154.292 40.248C154.239 40.248 154.089 40.184 153.844 40.056C153.609 39.928 153.279 39.864 152.852 39.864C152.5 39.864 152.201 39.944 151.956 40.104C151.711 40.264 151.588 40.4933 151.588 40.792C151.588 41.08 151.684 41.304 151.876 41.464C152.068 41.624 152.399 41.784 152.868 41.944C153.295 42.0827 153.684 42.2587 154.036 42.472C154.399 42.6747 154.687 42.9413 154.9 43.272C155.124 43.6027 155.236 44.0347 155.236 44.568C155.236 45.0693 155.113 45.512 154.868 45.896C154.623 46.28 154.281 46.584 153.844 46.808C153.407 47.032 152.9 47.144 152.324 47.144Z" fill="#FF6754"/>
<path d="M104.436 24.6132C116.173 23.3067 148.23 21.2804 182.559 23.6274" stroke="#20396B" stroke-width="1.5" stroke-linecap="round"/>
</svg>
